<?xml version="1.0" encoding="UTF-8" standalone="no"?>
<!DOCTYPE svg PUBLIC "-//W3C//DTD SVG 1.1//EN" "http://www.w3.org/Graphics/SVG/1.1/DTD/svg11.dtd">
<svg width="100%" height="100%" viewBox="0 0 1254 170" version="1.1" xmlns="http://www.w3.org/2000/svg" xmlns:xlink="http://www.w3.org/1999/xlink" xml:space="preserve" xmlns:serif="http://www.serif.com/" style="fill-rule: evenodd; clip-rule: evenodd; stroke-linejoin: round; stroke-miterlimit: 2;">
    <g transform="matrix(1,0,0,1,-4396.67,-4030.35)">
        <g transform="matrix(3.78501,0,0,3.78501,5419.38,3093.76)">
            <g transform="matrix(0.2642,0,0,0.2642,-1431.8,-817.372)">
                <path d="M5598.71,4200.22C5587.66,4200.22 5577.82,4198.33 5569.19,4194.54C5560.56,4190.76 5553.74,4185.57 5548.75,4178.99C5543.75,4172.4 5540.95,4165.02 5540.35,4156.84L5578.73,4156.84C5579.18,4161.23 5581.22,4164.79 5584.86,4167.52C5588.49,4170.24 5592.96,4171.61 5598.26,4171.61C5603.1,4171.61 5606.85,4170.66 5609.5,4168.77C5612.15,4166.88 5613.47,4164.41 5613.47,4161.39C5613.47,4157.75 5611.58,4155.07 5607.8,4153.32C5604.01,4151.58 5597.88,4149.65 5589.4,4147.53C5580.32,4145.41 5572.75,4143.18 5566.69,4140.83C5560.63,4138.49 5555.41,4134.78 5551.02,4129.71C5546.63,4124.63 5544.43,4117.78 5544.43,4109.15C5544.43,4101.89 5546.44,4095.26 5550.45,4089.28C5554.46,4083.3 5560.37,4078.57 5568.17,4075.09C5575.96,4071.61 5585.24,4069.87 5595.99,4069.87C5611.88,4069.87 5624.41,4073.8 5633.57,4081.67C5642.73,4089.55 5647.99,4099.99 5649.35,4113.01L5613.47,4113.01C5612.87,4108.62 5610.94,4105.14 5607.68,4102.57C5604.43,4099.99 5600.15,4098.71 5594.85,4098.71C5590.31,4098.71 5586.83,4099.58 5584.4,4101.32C5581.98,4103.06 5580.77,4105.44 5580.77,4108.47C5580.77,4112.11 5582.7,4114.83 5586.56,4116.65C5590.42,4118.46 5596.44,4120.28 5604.62,4122.1C5614,4124.52 5621.65,4126.9 5627.55,4129.25C5633.46,4131.6 5638.64,4135.38 5643.11,4140.61C5647.57,4145.83 5649.88,4152.83 5650.04,4161.61C5650.04,4169.03 5647.95,4175.66 5643.79,4181.48C5639.63,4187.31 5633.65,4191.89 5625.85,4195.22C5618.05,4198.56 5609.01,4200.22 5598.71,4200.22ZM5223.31,4200.22C5210.9,4200.22 5199.73,4197.57 5189.82,4192.27C5179.9,4186.97 5172.1,4179.4 5166.43,4169.56C5160.75,4159.72 5157.91,4148.22 5157.91,4135.04C5157.91,4122.02 5160.79,4110.55 5166.54,4100.64C5172.29,4090.72 5180.16,4083.11 5190.16,4077.81C5200.15,4072.51 5211.35,4069.87 5223.77,4069.87C5236.18,4069.87 5247.39,4072.51 5257.38,4077.81C5267.37,4083.11 5275.24,4090.72 5281,4100.64C5286.75,4110.55 5289.63,4122.02 5289.63,4135.04C5289.63,4148.06 5286.71,4159.53 5280.88,4169.45C5275.06,4179.36 5267.11,4186.97 5257.04,4192.27C5246.97,4197.57 5235.73,4200.22 5223.31,4200.22ZM5460.18,4200.22C5447.77,4200.22 5436.6,4197.57 5426.68,4192.27C5416.77,4186.97 5408.97,4179.4 5403.29,4169.56C5397.61,4159.72 5394.78,4148.22 5394.78,4135.04C5394.78,4122.02 5397.65,4110.55 5403.4,4100.64C5409.16,4090.72 5417.03,4083.11 5427.02,4077.81C5437.02,4072.51 5448.22,4069.87 5460.63,4069.87C5473.05,4069.87 5484.25,4072.51 5494.24,4077.81C5504.24,4083.11 5512.11,4090.72 5517.86,4100.64C5523.62,4110.55 5526.49,4122.02 5526.49,4135.04C5526.49,4148.06 5523.58,4159.53 5517.75,4169.45C5511.92,4179.36 5503.97,4186.97 5493.9,4192.27C5483.84,4197.57 5472.6,4200.22 5460.18,4200.22ZM4568.58,4134.82C4568.58,4121.8 4571.04,4110.36 4575.97,4100.52C4580.89,4090.68 4587.59,4083.11 4596.06,4077.81C4604.54,4072.51 4614,4069.87 4624.45,4069.87C4633.38,4069.87 4641.22,4071.68 4647.95,4075.32C4654.69,4078.95 4659.88,4083.72 4663.51,4089.62L4663.51,4071.68L4702.35,4071.68L4702.35,4198.4L4663.51,4198.4L4663.51,4180.46C4659.73,4186.37 4654.47,4191.14 4647.73,4194.77C4640.99,4198.4 4633.16,4200.22 4624.22,4200.22C4613.93,4200.22 4604.54,4197.53 4596.06,4192.16C4587.59,4186.78 4580.89,4179.14 4575.97,4169.22C4571.04,4159.31 4568.58,4147.84 4568.58,4134.82ZM4502.75,4040.78L4535.05,4030.54C4536.29,4030.15 4537.64,4030.37 4538.69,4031.14C4539.74,4031.92 4540.36,4033.14 4540.35,4034.45L4540.14,4066.79C4545.74,4074.33 4549.84,4083.08 4552.46,4093.03L4509.77,4093.03C4506.59,4086.37 4502.08,4081.3 4496.25,4077.81C4490.42,4074.33 4483.8,4072.59 4476.38,4072.59C4464.42,4072.59 4454.73,4076.75 4447.31,4085.08C4439.89,4093.41 4436.18,4104.54 4436.18,4118.46C4436.18,4132.39 4439.89,4143.52 4447.31,4151.85C4454.73,4160.18 4464.42,4164.34 4476.38,4164.34C4483.8,4164.34 4490.42,4162.6 4496.25,4159.11C4502.08,4155.63 4506.59,4150.56 4509.77,4143.9L4552.46,4143.9C4547.92,4161.16 4538.91,4174.75 4525.44,4184.66C4511.96,4194.58 4495.76,4199.54 4476.84,4199.54C4461.39,4199.54 4447.58,4196.1 4435.39,4189.21C4423.2,4182.32 4413.7,4172.74 4406.89,4160.48C4400.07,4148.22 4396.67,4134.21 4396.67,4118.46C4396.67,4102.72 4400.07,4088.68 4406.89,4076.34C4407.65,4074.96 4408.44,4073.62 4409.27,4072.31L4409.02,4072.49C4409.02,4072.49 4408.86,4046.23 4408.78,4034.45C4408.77,4033.14 4409.39,4031.92 4410.44,4031.14C4411.49,4030.37 4412.84,4030.15 4414.08,4030.54L4448.76,4041.54C4457.43,4038.62 4466.79,4037.16 4476.84,4037.16C4486.13,4037.16 4494.77,4038.37 4502.75,4040.78ZM5380.92,4165.47L5380.92,4198.4L5361.16,4198.4C5347.08,4198.4 5336.11,4194.96 5328.23,4188.07C5320.36,4181.18 5316.43,4169.94 5316.43,4154.35L5316.43,4103.93L5300.98,4103.93L5300.98,4071.68L5316.43,4071.68L5316.43,4040.8L5355.26,4040.8L5355.26,4071.68L5380.69,4071.68L5380.69,4103.93L5355.26,4103.93L5355.26,4154.8C5355.26,4158.59 5356.17,4161.31 5357.98,4162.98C5359.8,4164.64 5362.83,4165.47 5367.07,4165.47L5380.92,4165.47ZM4801.14,4165.47L4801.14,4198.4L4781.38,4198.4C4767.3,4198.4 4756.32,4194.96 4748.45,4188.07C4740.57,4181.18 4736.64,4169.94 4736.64,4154.35L4736.64,4103.93L4721.19,4103.93L4721.19,4071.68L4736.64,4071.68L4736.64,4040.8L4775.47,4040.8L4775.47,4071.68L4800.91,4071.68L4800.91,4103.93L4775.47,4103.93L4775.47,4154.8C4775.47,4158.59 4776.38,4161.31 4778.2,4162.98C4780.01,4164.64 4783.04,4165.47 4787.28,4165.47L4801.14,4165.47ZM4992.35,4090.3C4992.35,4099.54 4990.23,4107.98 4985.99,4115.63C4981.76,4123.27 4975.24,4129.44 4966.46,4134.13C4957.68,4138.83 4946.78,4141.17 4933.76,4141.17L4909.69,4141.17L4909.69,4198.4L4870.85,4198.4L4870.85,4038.98L4933.76,4038.98C4946.48,4038.98 4957.23,4041.18 4966.01,4045.57C4974.79,4049.96 4981.38,4056.01 4985.77,4063.73C4990.16,4071.45 4992.35,4080.31 4992.35,4090.3ZM5090.46,4070.32C5104.99,4070.32 5116.65,4075.13 5125.43,4084.74C5134.22,4094.35 5138.61,4107.56 5138.61,4124.37L5138.61,4198.4L5100,4198.4L5100,4129.59C5100,4121.11 5097.8,4114.53 5093.41,4109.84C5089.02,4105.14 5083.12,4102.8 5075.7,4102.8C5068.28,4102.8 5062.38,4105.14 5057.98,4109.84C5053.59,4114.53 5051.4,4121.11 5051.4,4129.59L5051.4,4198.4L5012.57,4198.4L5012.57,4030.35L5051.4,4030.35L5051.4,4088.71C5055.34,4083.11 5060.71,4078.65 5067.52,4075.32C5074.34,4071.99 5081.98,4070.32 5090.46,4070.32ZM4625.79,4130.42C4614.31,4130.42 4598.03,4148.16 4598.03,4159.36C4598.03,4164.41 4601.91,4167.42 4608.4,4167.42C4615.46,4167.42 4620.13,4163.8 4625.79,4163.8C4631.5,4163.8 4636.18,4167.42 4643.17,4167.42C4649.67,4167.42 4653.54,4164.41 4653.54,4159.36C4653.54,4148.16 4637.27,4130.42 4625.79,4130.42ZM5223.31,4166.61C5230.73,4166.61 5237.05,4163.89 5242.28,4158.43C5247.5,4152.98 5250.11,4145.19 5250.11,4135.04C5250.11,4124.9 5247.58,4117.1 5242.5,4111.65C5237.43,4106.2 5231.19,4103.48 5223.77,4103.48C5216.2,4103.48 5209.91,4106.16 5204.92,4111.54C5199.92,4116.91 5197.43,4124.75 5197.43,4135.04C5197.43,4145.19 5199.89,4152.98 5204.81,4158.43C5209.73,4163.89 5215.9,4166.61 5223.31,4166.61ZM5460.18,4166.61C5467.6,4166.61 5473.92,4163.89 5479.14,4158.43C5484.37,4152.98 5486.98,4145.19 5486.98,4135.04C5486.98,4124.9 5484.44,4117.1 5479.37,4111.65C5474.3,4106.2 5468.05,4103.48 5460.63,4103.48C5453.06,4103.48 5446.78,4106.16 5441.78,4111.54C5436.79,4116.91 5434.29,4124.75 5434.29,4135.04C5434.29,4145.19 5436.75,4152.98 5441.67,4158.43C5446.59,4163.89 5452.76,4166.61 5460.18,4166.61ZM4657.42,4121.35C4653.21,4120.34 4648.58,4123.59 4647.08,4128.6C4645.57,4133.61 4647.77,4138.48 4651.98,4139.49C4656.19,4140.49 4660.82,4137.25 4662.32,4132.24C4663.82,4127.23 4661.63,4122.36 4657.42,4121.35ZM4604.5,4128.6C4602.99,4123.59 4598.36,4120.34 4594.15,4121.35C4589.94,4122.35 4587.75,4127.23 4589.26,4132.24C4590.76,4137.25 4595.39,4140.49 4599.6,4139.48C4603.81,4138.48 4606,4133.6 4604.5,4128.6ZM4616.74,4125.59C4621.22,4124.41 4623.45,4118.37 4621.74,4112.1C4620.03,4105.82 4615.02,4101.69 4610.55,4102.86C4606.07,4104.04 4603.84,4110.08 4605.55,4116.36C4607.26,4122.64 4612.27,4126.77 4616.74,4125.59ZM4634.83,4125.59C4639.31,4126.77 4644.32,4122.64 4646.03,4116.36C4647.74,4110.08 4645.5,4104.04 4641.03,4102.86C4636.56,4101.68 4631.55,4105.82 4629.83,4112.1C4628.12,4118.37 4630.36,4124.41 4634.83,4125.59ZM4930.81,4110.29C4938.23,4110.29 4943.75,4108.55 4947.39,4105.07C4951.02,4101.58 4952.84,4096.66 4952.84,4090.3C4952.84,4083.95 4951.02,4079.03 4947.39,4075.54C4943.75,4072.06 4938.23,4070.32 4930.81,4070.32L4909.69,4070.32L4909.69,4110.29L4930.81,4110.29Z" style="fill: white; fill-rule: nonzero;"/>
            </g>
        </g>
    </g>
</svg>
